<?xml version="1.0" encoding="utf-8"?>
<!-- Generator: Adobe Illustrator 24.3.0, SVG Export Plug-In . SVG Version: 6.00 Build 0)  -->
<svg version="1.1" id="Layer_1" xmlns="http://www.w3.org/2000/svg" xmlns:xlink="http://www.w3.org/1999/xlink" x="0px" y="0px"
	 viewBox="0 0 462.87 131.36" style="enable-background:new 0 0 462.87 131.36;" xml:space="preserve">
<style type="text/css">
	.st0{fill:#FFFFFF;}
</style>
<rect x="13.59" y="21.69" class="st0" width="30.87" height="22.13"/>
<rect x="13.59" y="49.41" class="st0" width="30.87" height="61.18"/>
<path class="st0" d="M208.6,48.06c-9.62,0-17.13,3.1-22.2,8.41c-5.07,5.3-7.64,12.74-7.64,21.23c0,8.48,2.57,15.94,7.63,21.28
	c5.07,5.33,12.59,8.46,22.2,8.46h0.03c9.6,0,17.08-3.13,22.12-8.46c5.04-5.34,7.59-12.8,7.58-21.28c0-8.49-2.54-15.93-7.59-21.23
	C225.71,51.16,218.21,48.06,208.6,48.06 M216.62,90.06c-1.64,3.08-3.98,4.84-8.02,4.87c-3.99-0.03-6.37-1.8-8.04-4.88
	c-1.64-3.09-2.33-7.55-2.33-12.46c-0.01-4.91,0.66-9.48,2.3-12.67c1.67-3.19,4.04-5.04,8.07-5.07c4.02,0.04,6.37,1.88,8.02,5.07
	c1.61,3.19,2.26,7.76,2.25,12.67C218.87,82.52,218.23,86.98,216.62,90.06 M179.48,48.95c-0.17-0.26-0.45-0.43-0.76-0.47
	c-1.78-0.21-5.12-0.41-7.9-0.41c-12.3,0-20.53,1.53-26.96,4.12c-0.39,0.16-0.66,0.54-0.66,0.98v51.82c0,0.27,0.12,0.55,0.31,0.74
	c0.2,0.19,0.47,0.31,0.74,0.31h17.07c0.28,0,0.55-0.11,0.74-0.31c0.2-0.2,0.31-0.47,0.31-0.74V60.65c1.34-0.44,3.15-0.68,5.09-0.68
	c2.51-0.01,5.26,0.39,7.58,1.15c0.26,0.09,0.56,0.06,0.81-0.06c0.25-0.13,0.43-0.36,0.52-0.62l3.23-10.61
	C179.69,49.52,179.65,49.2,179.48,48.95 M441.66,55.98l5.57-7.03c0.35-0.45,0.28-1.08-0.14-1.45l-3.34-2.83
	c-0.22-0.18-0.5-0.27-0.78-0.24c-0.28,0.03-0.54,0.17-0.72,0.4l-5.7,7.26c-4.48-2.55-9.97-4.02-16.51-4.02
	c-9.62,0-17.14,3.1-22.21,8.41c-5.06,5.3-7.64,12.74-7.63,21.23c0,8.83,2.77,16.54,8.21,21.91l-5.66,7.03
	c-0.37,0.44-0.29,1.1,0.15,1.46l3.34,2.73c0.18,0.16,0.42,0.24,0.66,0.24c0.04,0,0.07,0,0.11-0.01c0.27-0.02,0.53-0.16,0.7-0.38
	l5.8-7.18c4.49,2.55,9.99,3.93,16.53,3.93c9.61,0.01,17.11-3.13,22.15-8.46c5.05-5.34,7.59-12.8,7.59-21.28
	C449.78,68.88,447.1,61.33,441.66,55.98 M408.25,77.6c-0.01-5.26,0.76-10.11,2.62-13.52c1.88-3.39,4.61-5.4,9.17-5.44
	c3.82,0.03,6.23,1.44,8.08,3.87l-18.94,23.65C408.57,83.59,408.25,80.66,408.25,77.6 M429.17,90.92c-1.85,3.28-4.55,5.2-9.12,5.24
	c-3.65-0.02-6.05-1.21-7.87-3.39l18.78-23.46c0.52,2.53,0.77,5.34,0.77,8.3C431.73,82.86,430.99,87.62,429.17,90.92 M382.14,78.53
	c-3.75-3.57-9.1-5.16-13.38-6.9c-2.15-0.85-4.02-1.74-5.27-2.79c-1.25-1.06-1.89-2.14-1.91-3.77c0-1.32,0.62-2.53,1.87-3.5
	c1.25-0.96,3.18-1.62,5.67-1.62c4.27-0.01,8.08,1.65,9.84,2.76c0.26,0.16,0.56,0.21,0.85,0.13c0.29-0.08,0.53-0.29,0.66-0.56
	l4.14-8.68c0.25-0.51,0.04-1.12-0.47-1.38c-5.08-2.6-10.76-4.16-18.86-4.16c-6.83,0-12.5,2.06-16.49,5.34
	c-3.98,3.27-6.29,7.79-6.28,12.58c-0.01,4.49,1.64,7.74,4.07,10.02c3.64,3.42,8.82,4.86,12.96,6.52c2.06,0.82,3.86,1.69,5.06,2.75
	c1.19,1.07,1.83,2.2,1.86,3.95c0,1.42-0.79,2.78-2.24,3.85c-1.45,1.07-3.54,1.77-5.91,1.77c-4.51,0.01-9.48-1.59-11.76-3.07
	c-0.26-0.17-0.58-0.21-0.87-0.12c-0.29,0.09-0.53,0.3-0.66,0.58l-4.24,9.7c-0.22,0.49-0.02,1.08,0.46,1.33
	c4.08,2.24,11.53,4.16,19.5,4.17c7.76,0,14.13-2.09,18.59-5.48c4.46-3.38,7.01-8.09,7.01-13.15
	C386.35,84.24,384.65,80.9,382.14,78.53 M329.76,53.51c-4.04-3.38-10-5.45-17.81-5.45c-9.79,0-16.43,2.43-20.86,5.4
	c-3.95-3.07-9.94-5.41-20.15-5.4c-10.6,0-18.83,1.54-25.72,4.11c-0.41,0.15-0.68,0.55-0.68,0.99v51.82c0,0.27,0.12,0.55,0.31,0.74
	c0.2,0.19,0.47,0.31,0.74,0.31h17.07c0.28,0,0.55-0.11,0.74-0.31c0.19-0.2,0.31-0.47,0.31-0.74V60.69c1.88-0.56,4.2-0.93,7.34-0.93
	c3.28-0.01,5.71,0.73,7.25,1.88c1.54,1.17,2.29,2.7,2.3,4.74v38.59c0,0.27,0.11,0.55,0.31,0.74c0.19,0.19,0.46,0.31,0.74,0.31h17.08
	c0.28,0,0.54-0.11,0.74-0.31c0.19-0.2,0.31-0.47,0.31-0.74V62.16c2.18-1.58,4.92-2.5,8.15-2.5c3.2,0,5.37,0.85,6.74,2.08
	c1.36,1.23,2.01,2.88,2.01,4.75v38.49c0,0.27,0.11,0.55,0.31,0.74c0.19,0.19,0.47,0.31,0.74,0.31h17.08c0.27,0,0.55-0.11,0.74-0.31
	c0.2-0.2,0.31-0.47,0.31-0.74V66.49C335.83,61.56,333.79,56.88,329.76,53.51 M140.59,21.92H62.95c-1.3,0-2.35,1.05-2.35,2.35
	c0,0.1,0.02,0.18,0.03,0.27l0.15,0.57c0.06,0.18,0.08,0.24,0.05,0.17l6.25,23.38c0.03-0.07,0.04-0.06,0.04,0.06
	c0,0.05,0.01,0.09,0.02,0.14l0.25,0.93c0.39,0.76,1.18,1.29,2.09,1.29c0.56,0,1.08-0.2,1.48-0.53c0.04-0.03,0.04-0.01,0.02,0.06
	c4.56-3.7,10.07-6.61,16.21-8.43c0.64,0,1.16,0.52,1.16,1.17c0,0.39-0.19,0.73-0.48,0.95c-0.02,0.02,0.08-0.04,0.26-0.15
	c-9.4,7.18-16.17,18.29-17.58,30.78c-2.44,21.64,12.13,39.19,32.54,39.19c8.39,0,16.46-2.97,23.23-7.96
	c4.58-4.72,7.4-11.15,7.4-18.24c0-1.78-0.18-3.52-0.52-5.2c0.01,0.04,0.01,0.05,0.01,0.05c-0.26-1.01-1.19-1.77-2.28-1.77
	c-0.65,0-1.25,0.27-1.67,0.71c-0.01,0.01-0.01,0-0.02,0c-5.08,5.65-12.18,9.25-19.67,9.25c-13.39,0-22.95-11.5-21.35-25.7
	c1.02-9.03,6.31-16.97,13.48-21.55c2.9-1.57,7.25-2.53,10.43-2.53c5.65,0,11,2.91,15.19,5.2c0.27,0.15,0.49,0.21,0.67,0.22
	c0.11,0.09,0.24,0.18,0.36,0.28c0.18,0.05,0.37,0.07,0.56,0.07c0.83,0,1.57-0.43,1.99-1.09c0.02-0.04,0.07-0.07,0.12-0.1
	l11.83-20.78c0.06-0.22,0.1-0.45,0.1-0.69C142.94,22.97,141.89,21.92,140.59,21.92"/>
</svg>
