<?xml version="1.0" encoding="utf-8"?>
<!-- Generator: Adobe Illustrator 24.3.0, SVG Export Plug-In . SVG Version: 6.00 Build 0)  -->
<svg version="1.1" id="Layer_1" xmlns="http://www.w3.org/2000/svg" xmlns:xlink="http://www.w3.org/1999/xlink" x="0px" y="0px"
	 viewBox="0 0 462.87 131.36" style="enable-background:new 0 0 462.87 131.36;" xml:space="preserve">
<rect x="13.59" y="21.29" width="30.83" height="22.1"/>
<rect x="13.59" y="48.97" width="30.83" height="61.09"/>
<path d="M208.32,47.63c-9.6,0-17.11,3.1-22.17,8.4c-5.07,5.3-7.63,12.72-7.63,21.2c0,8.47,2.56,15.92,7.62,21.25
	c5.06,5.33,12.57,8.45,22.17,8.45h0.03c9.59,0,17.06-3.13,22.09-8.45c5.03-5.33,7.58-12.78,7.57-21.25c0-8.48-2.54-15.9-7.58-21.2
	C225.41,50.73,217.92,47.63,208.32,47.63 M216.33,89.57c-1.63,3.07-3.97,4.83-8.01,4.87c-3.99-0.03-6.36-1.79-8.03-4.87
	c-1.64-3.09-2.33-7.54-2.32-12.44c-0.01-4.9,0.66-9.46,2.3-12.65c1.66-3.19,4.04-5.03,8.06-5.07c4.02,0.04,6.36,1.88,8.01,5.06
	c1.61,3.19,2.25,7.75,2.25,12.65C218.58,82.03,217.94,86.49,216.33,89.57 M179.24,48.51c-0.17-0.26-0.45-0.43-0.75-0.47
	c-1.78-0.21-5.11-0.41-7.89-0.41c-12.29,0-20.5,1.53-26.92,4.11c-0.39,0.16-0.65,0.54-0.65,0.97v51.75c0,0.27,0.11,0.55,0.31,0.74
	c0.2,0.19,0.47,0.31,0.74,0.31h17.05c0.28,0,0.55-0.11,0.74-0.31c0.2-0.2,0.31-0.47,0.31-0.74V60.19c1.34-0.44,3.15-0.68,5.08-0.67
	c2.51-0.01,5.25,0.39,7.57,1.15c0.26,0.09,0.56,0.06,0.81-0.06c0.25-0.13,0.43-0.36,0.52-0.62l3.23-10.59
	C179.46,49.09,179.41,48.77,179.24,48.51 M441.05,55.54l5.56-7.02c0.35-0.45,0.28-1.08-0.14-1.45l-3.33-2.82
	c-0.22-0.18-0.5-0.27-0.78-0.24c-0.28,0.03-0.54,0.17-0.72,0.4l-5.69,7.25c-4.48-2.54-9.96-4.02-16.49-4.02
	c-9.6,0-17.11,3.1-22.18,8.4c-5.05,5.3-7.63,12.72-7.62,21.2c0,8.82,2.77,16.52,8.2,21.88l-5.65,7.02c-0.37,0.44-0.29,1.1,0.15,1.46
	l3.33,2.72c0.18,0.16,0.42,0.24,0.66,0.24c0.04,0,0.07,0,0.11-0.01c0.27-0.02,0.53-0.16,0.7-0.38l5.79-7.17
	c4.49,2.54,9.98,3.93,16.5,3.92c9.6,0.01,17.08-3.12,22.12-8.45c5.04-5.33,7.58-12.78,7.58-21.25
	C449.16,68.41,446.48,60.88,441.05,55.54 M407.69,77.13c-0.01-5.25,0.76-10.1,2.62-13.5c1.88-3.39,4.61-5.4,9.16-5.43
	c3.82,0.03,6.23,1.44,8.07,3.86l-18.91,23.62C408.01,83.1,407.69,80.18,407.69,77.13 M428.58,90.42c-1.85,3.28-4.54,5.2-9.11,5.23
	c-3.64-0.02-6.04-1.2-7.86-3.39l18.75-23.42c0.52,2.52,0.77,5.33,0.77,8.28C431.14,82.38,430.39,87.12,428.58,90.42 M381.62,78.05
	c-3.74-3.56-9.08-5.15-13.36-6.89c-2.14-0.85-4.01-1.74-5.26-2.78c-1.25-1.06-1.89-2.14-1.9-3.76c0-1.32,0.62-2.53,1.87-3.49
	c1.25-0.96,3.17-1.62,5.67-1.61c4.26-0.01,8.07,1.64,9.82,2.76c0.26,0.16,0.56,0.21,0.85,0.13c0.29-0.08,0.53-0.29,0.66-0.56
	l4.13-8.67c0.25-0.51,0.04-1.12-0.47-1.38c-5.07-2.59-10.74-4.16-18.84-4.15c-6.82,0-12.48,2.06-16.46,5.33
	c-3.98,3.27-6.28,7.78-6.27,12.56c-0.01,4.48,1.64,7.73,4.06,10c3.63,3.42,8.81,4.85,12.94,6.51c2.06,0.82,3.86,1.69,5.05,2.74
	c1.19,1.07,1.83,2.2,1.85,3.95c0,1.41-0.78,2.77-2.24,3.84c-1.45,1.07-3.53,1.77-5.9,1.77c-4.5,0.01-9.47-1.59-11.74-3.07
	c-0.26-0.16-0.57-0.21-0.87-0.12c-0.29,0.09-0.53,0.3-0.66,0.58l-4.24,9.69c-0.22,0.49-0.02,1.08,0.46,1.33
	c4.08,2.24,11.52,4.16,19.47,4.17c7.75,0,14.11-2.09,18.56-5.47c4.46-3.37,7-8.08,7-13.13C385.82,83.76,384.12,80.42,381.62,78.05
	 M329.31,53.07c-4.03-3.37-9.99-5.44-17.79-5.44c-9.78,0-16.41,2.43-20.83,5.39c-3.94-3.06-9.92-5.4-20.12-5.39
	c-10.59,0-18.8,1.53-25.69,4.1c-0.41,0.15-0.68,0.55-0.68,0.98v51.75c0,0.27,0.12,0.55,0.31,0.74c0.2,0.19,0.46,0.31,0.74,0.31
	h17.04c0.27,0,0.55-0.11,0.74-0.31c0.19-0.2,0.31-0.47,0.31-0.74V60.24c1.88-0.56,4.2-0.93,7.33-0.93c3.28-0.01,5.7,0.73,7.24,1.88
	c1.54,1.17,2.29,2.7,2.3,4.74v38.54c0,0.27,0.11,0.55,0.31,0.74c0.19,0.19,0.46,0.31,0.74,0.31h17.05c0.27,0,0.54-0.11,0.74-0.31
	c0.19-0.2,0.31-0.47,0.31-0.74V61.71c2.17-1.58,4.91-2.5,8.13-2.5c3.2,0,5.36,0.85,6.73,2.08c1.36,1.23,2,2.87,2.01,4.75v38.43
	c0,0.27,0.11,0.55,0.31,0.74c0.19,0.19,0.46,0.31,0.74,0.31h17.05c0.27,0,0.54-0.11,0.74-0.31c0.2-0.2,0.31-0.47,0.31-0.74V66.03
	C335.38,61.11,333.34,56.44,329.31,53.07 M140.41,21.52H62.89c-1.3,0-2.35,1.05-2.35,2.35c0,0.1,0.02,0.18,0.03,0.27l0.15,0.57
	c0.06,0.18,0.08,0.24,0.05,0.17l6.25,23.35c0.03-0.07,0.04-0.06,0.04,0.06c0,0.04,0.01,0.09,0.02,0.14l0.25,0.93
	c0.39,0.76,1.17,1.28,2.08,1.28c0.56,0,1.08-0.2,1.48-0.53c0.04-0.03,0.04-0.01,0.02,0.06c4.56-3.69,10.06-6.6,16.19-8.42
	c0.64,0,1.16,0.52,1.16,1.17c0,0.39-0.19,0.73-0.48,0.95c-0.02,0.02,0.08-0.04,0.26-0.15c-9.38,7.16-16.14,18.26-17.55,30.74
	c-2.44,21.61,12.11,39.13,32.5,39.13c8.38,0,16.44-2.96,23.19-7.95c4.57-4.71,7.39-11.13,7.39-18.22c0-1.78-0.18-3.51-0.52-5.19
	c0,0.04,0.01,0.05,0,0.05c-0.26-1.01-1.18-1.77-2.28-1.77c-0.65,0-1.25,0.27-1.67,0.7c-0.01,0.01-0.01,0-0.02,0
	c-5.08,5.64-12.17,9.23-19.64,9.23c-13.37,0-22.91-11.49-21.31-25.66c1.02-9.02,6.31-16.94,13.46-21.52
	c2.89-1.57,7.24-2.53,10.41-2.53c5.64,0,10.99,2.9,15.17,5.2c0.27,0.15,0.49,0.21,0.67,0.22c0.11,0.09,0.24,0.18,0.36,0.28
	c0.18,0.04,0.37,0.07,0.56,0.07c0.83,0,1.56-0.43,1.98-1.08c0.02-0.04,0.07-0.07,0.12-0.1l11.81-20.75c0.06-0.22,0.1-0.45,0.1-0.69
	C142.76,22.57,141.71,21.52,140.41,21.52"/>
</svg>
