<?xml version="1.0" encoding="utf-8"?>
<!-- Generator: Adobe Illustrator 24.3.1, SVG Export Plug-In . SVG Version: 6.00 Build 0)  -->
<svg version="1.1" id="Layer_1" xmlns="http://www.w3.org/2000/svg" xmlns:xlink="http://www.w3.org/1999/xlink" x="0px" y="0px"
	 viewBox="0 0 163.71 108.38" style="enable-background:new 0 0 163.71 108.38;" xml:space="preserve">
<style type="text/css">
	.st0{fill:#FFFFFF;}
</style>
<path class="st0" d="M163.71,19l-58.95,42.05l58.35,32.55c0.36-1.47,0.38-3.01,0.38-4.59V19.55C163.5,19.36,163.72,19.18,163.71,19z
	 M160.99,9.13C157.57,3.72,151.54,0,144.67,0H19.63C12.69,0,6.62,3.78,3.22,9.28l79.09,55.88L160.99,9.13z M85.31,74.89
	c-0.82,0.58-1.79,0.79-2.8,0.79h-0.39c-1,0-1.97-0.21-2.78-0.78l-10.93-7.67L5.58,102.24c3.52,3.74,8.51,6.14,14.05,6.14h125.03
	c5.6,0,10.65-2.43,14.17-6.24L96.17,67.22L85.31,74.89z M0.18,19.19c0,0.12-0.18,0.23-0.18,0.36v69.46c0,1.64,0.38,3.24,0.76,4.76
	L59.5,61.1L0.18,19.19z"/>
</svg>
