<?xml version="1.0" encoding="utf-8"?>
<!-- Generator: Adobe Illustrator 24.3.1, SVG Export Plug-In . SVG Version: 6.00 Build 0)  -->
<svg version="1.1" id="Layer_1" xmlns="http://www.w3.org/2000/svg" xmlns:xlink="http://www.w3.org/1999/xlink" x="0px" y="0px"
	 viewBox="0 0 96.97 183.85" style="enable-background:new 0 0 96.97 183.85;" xml:space="preserve">
<style type="text/css">
	.st0{fill:#333333;}
</style>
<path class="st0" d="M96.97,175.19V9.82c0-5.09-2.69-7.35-9.92-7.79c-0.41-0.02-0.9-0.34-1.2-0.42C74.8,0.76,65.01,0,48.85,0h-1.38
	C29.27,0,19.34,0.89,6.04,1.95C5.96,1.99,6.14,2.16,6,2.17C3.53,2.34,0,3.08,0,6.53v171.96c0,2.32,1.66,3.16,3.43,3.64
	c14.83,1.21,24.64,1.72,44.17,1.72h1.11c18.46,0,28.78-0.44,42.01-1.53C95.12,181.36,96.97,179.29,96.97,175.19z M36.76,9.09h22.3
	c1.33,0,2.42,0.69,2.42,2.02s-1.09,2.02-2.42,2.02h-22.3c-1.33,0-2.42-0.69-2.42-2.02C34.34,9.78,35.43,9.09,36.76,9.09z
	 M8.08,162.63V22.22h79.8v140.41H8.08z"/>
</svg>
